<?xml version="1.0" encoding="utf-8"?>
<!-- Generator: Adobe Illustrator 16.0.0, SVG Export Plug-In . SVG Version: 6.00 Build 0)  -->
<!DOCTYPE svg PUBLIC "-//W3C//DTD SVG 1.1//EN" "http://www.w3.org/Graphics/SVG/1.1/DTD/svg11.dtd">
<svg version="1.1" id="Layer_1" xmlns="http://www.w3.org/2000/svg" xmlns:xlink="http://www.w3.org/1999/xlink" x="0px" y="0px"
	 width="48.014px" height="48.081px" viewBox="0 0 48.014 48.081" enable-background="new 0 0 48.014 48.081" xml:space="preserve">
<g>
	<g>
		<circle fill="#FFFFFF" cx="4.674" cy="11.879" r="1.05"/>
	</g>
	<g>
		<circle fill="#FFFFFF" cx="4.674" cy="8.345" r="1.05"/>
	</g>
	<g>
		<circle fill="#FFFFFF" cx="4.674" cy="22.481" r="1.05"/>
	</g>
	<g>
		<circle fill="#FFFFFF" cx="4.674" cy="18.947" r="1.05"/>
	</g>
	<g>
		<circle fill="#FFFFFF" cx="4.674" cy="15.413" r="1.05"/>
	</g>
	<g>
		<circle fill="#FFFFFF" cx="4.674" cy="33.084" r="1.05"/>
	</g>
	<g>
		<circle fill="#FFFFFF" cx="4.674" cy="29.55" r="1.05"/>
	</g>
	<g>
		<circle fill="#FFFFFF" cx="4.674" cy="26.016" r="1.05"/>
	</g>
	<g>
		<circle fill="#FFFFFF" cx="4.674" cy="43.686" r="1.05"/>
	</g>
	<g>
		<circle fill="#FFFFFF" cx="4.674" cy="40.151" r="1.05"/>
	</g>
	<g>
		<circle fill="#FFFFFF" cx="4.674" cy="36.618" r="1.05"/>
	</g>
	<g>
		<circle fill="#FFFFFF" cx="8.198" cy="11.879" r="1.05"/>
	</g>
	<g>
		<circle fill="#FFFFFF" cx="8.198" cy="8.345" r="1.05"/>
	</g>
	<g>
		<circle fill="#FFFFFF" cx="8.198" cy="4.81" r="1.05"/>
	</g>
	<g>
		<circle fill="#FFFFFF" cx="8.198" cy="22.481" r="1.05"/>
	</g>
	<g>
		<circle fill="#FFFFFF" cx="8.198" cy="18.947" r="1.05"/>
	</g>
	<g>
		<circle fill="#FFFFFF" cx="8.198" cy="15.413" r="1.05"/>
	</g>
	<g>
		<circle fill="#FFFFFF" cx="8.198" cy="33.084" r="1.05"/>
	</g>
	<g>
		<circle fill="#FFFFFF" cx="8.198" cy="29.55" r="1.05"/>
	</g>
	<g>
		<circle fill="#FFFFFF" cx="8.198" cy="26.016" r="1.05"/>
	</g>
	<g>
		<circle fill="#FFFFFF" cx="8.198" cy="43.686" r="1.05"/>
	</g>
	<g>
		<circle fill="#FFFFFF" cx="8.198" cy="40.151" r="1.05"/>
	</g>
	<g>
		<circle fill="#FFFFFF" cx="8.198" cy="36.618" r="1.05"/>
	</g>
	<g>
		<circle fill="#FFFFFF" cx="11.721" cy="11.879" r="1.05"/>
	</g>
	<g>
		<circle fill="#FFFFFF" cx="11.721" cy="8.345" r="1.05"/>
	</g>
	<g>
		<circle fill="#FFFFFF" cx="11.721" cy="4.81" r="1.05"/>
	</g>
	<g>
		<circle fill="#FFFFFF" cx="11.721" cy="22.481" r="1.05"/>
	</g>
	<g>
		<circle fill="#FFFFFF" cx="11.721" cy="18.947" r="1.05"/>
	</g>
	<g>
		<circle fill="#FFFFFF" cx="11.721" cy="15.413" r="1.05"/>
	</g>
	<g>
		<circle fill="#FFFFFF" cx="11.721" cy="33.084" r="1.05"/>
	</g>
	<g>
		<circle fill="#FFFFFF" cx="11.721" cy="29.55" r="1.05"/>
	</g>
	<g>
		<circle fill="#FFFFFF" cx="11.721" cy="26.016" r="1.05"/>
	</g>
	<g>
		<circle fill="#FFFFFF" cx="11.721" cy="43.686" r="1.05"/>
	</g>
	<g>
		<circle fill="#FFFFFF" cx="11.721" cy="40.151" r="1.05"/>
	</g>
	<g>
		<circle fill="#FFFFFF" cx="11.721" cy="36.618" r="1.05"/>
	</g>
	<g>
		<circle fill="#FFFFFF" cx="15.244" cy="11.879" r="1.05"/>
	</g>
	<g>
		<circle fill="#FFFFFF" cx="15.244" cy="8.345" r="1.05"/>
	</g>
	<g>
		<circle fill="#FFFFFF" cx="15.244" cy="4.81" r="1.05"/>
	</g>
	<g>
		<circle fill="#FFFFFF" cx="15.244" cy="43.686" r="1.05"/>
	</g>
	<g>
		<circle fill="#FFFFFF" cx="15.244" cy="40.151" r="1.05"/>
	</g>
	<g>
		<circle fill="#FFFFFF" cx="15.244" cy="36.618" r="1.05"/>
	</g>
	<g>
		<circle fill="#FFFFFF" cx="18.767" cy="11.879" r="1.05"/>
	</g>
	<g>
		<circle fill="#FFFFFF" cx="18.767" cy="8.345" r="1.05"/>
	</g>
	<g>
		<circle fill="#FFFFFF" cx="18.767" cy="4.81" r="1.05"/>
	</g>
	<g>
		<circle fill="#FFFFFF" cx="18.767" cy="43.686" r="1.05"/>
	</g>
	<g>
		<circle fill="#FFFFFF" cx="18.767" cy="40.151" r="1.05"/>
	</g>
	<g>
		<circle fill="#FFFFFF" cx="18.767" cy="36.618" r="1.05"/>
	</g>
	<g>
		<circle fill="#FFFFFF" cx="22.291" cy="11.879" r="1.05"/>
	</g>
	<g>
		<circle fill="#FFFFFF" cx="22.291" cy="8.345" r="1.05"/>
	</g>
	<g>
		<circle fill="#FFFFFF" cx="22.291" cy="4.81" r="1.05"/>
	</g>
	<g>
		<circle fill="#FFFFFF" cx="22.291" cy="43.686" r="1.05"/>
	</g>
	<g>
		<circle fill="#FFFFFF" cx="22.291" cy="40.151" r="1.05"/>
	</g>
	<g>
		<circle fill="#FFFFFF" cx="22.291" cy="36.618" r="1.05"/>
	</g>
	<g>
		<circle fill="#FFFFFF" cx="25.814" cy="11.879" r="1.05"/>
	</g>
	<g>
		<circle fill="#FFFFFF" cx="25.814" cy="8.345" r="1.05"/>
	</g>
	<g>
		<circle fill="#FFFFFF" cx="25.814" cy="4.81" r="1.05"/>
	</g>
	<g>
		<circle fill="#FFFFFF" cx="25.814" cy="43.686" r="1.05"/>
	</g>
	<g>
		<circle fill="#FFFFFF" cx="25.814" cy="40.151" r="1.05"/>
	</g>
	<g>
		<circle fill="#FFFFFF" cx="25.814" cy="36.618" r="1.05"/>
	</g>
	<g>
		<circle fill="#FFFFFF" cx="29.337" cy="11.879" r="1.05"/>
	</g>
	<g>
		<circle fill="#FFFFFF" cx="29.337" cy="8.345" r="1.05"/>
	</g>
	<g>
		<circle fill="#FFFFFF" cx="29.337" cy="4.81" r="1.05"/>
	</g>
	<g>
		<circle fill="#FFFFFF" cx="29.337" cy="43.686" r="1.05"/>
	</g>
	<g>
		<circle fill="#FFFFFF" cx="29.337" cy="40.151" r="1.05"/>
	</g>
	<g>
		<circle fill="#FFFFFF" cx="29.337" cy="36.618" r="1.05"/>
	</g>
	<g>
		<circle fill="#FFFFFF" cx="32.861" cy="11.879" r="1.05"/>
	</g>
	<g>
		<circle fill="#FFFFFF" cx="32.861" cy="8.345" r="1.05"/>
	</g>
	<g>
		<circle fill="#FFFFFF" cx="32.861" cy="4.81" r="1.05"/>
	</g>
	<g>
		<circle fill="#FFFFFF" cx="32.861" cy="43.686" r="1.05"/>
	</g>
	<g>
		<circle fill="#FFFFFF" cx="32.861" cy="40.151" r="1.05"/>
	</g>
	<g>
		<circle fill="#FFFFFF" cx="32.861" cy="36.618" r="1.05"/>
	</g>
	<g>
		<circle fill="#FFFFFF" cx="36.384" cy="11.879" r="1.049"/>
	</g>
	<g>
		<circle fill="#FFFFFF" cx="36.384" cy="8.345" r="1.049"/>
	</g>
	<g>
		<circle fill="#FFFFFF" cx="36.384" cy="4.81" r="1.049"/>
	</g>
	<g>
		<circle fill="#FFFFFF" cx="36.384" cy="22.481" r="1.049"/>
	</g>
	<g>
		<circle fill="#FFFFFF" cx="36.384" cy="18.947" r="1.049"/>
	</g>
	<g>
		<circle fill="#FFFFFF" cx="36.384" cy="15.413" r="1.049"/>
	</g>
	<g>
		<circle fill="#FFFFFF" cx="36.384" cy="33.084" r="1.049"/>
	</g>
	<g>
		<circle fill="#FFFFFF" cx="36.384" cy="29.55" r="1.049"/>
	</g>
	<g>
		<circle fill="#FFFFFF" cx="36.384" cy="26.016" r="1.049"/>
	</g>
	<g>
		<circle fill="#FFFFFF" cx="36.384" cy="43.686" r="1.049"/>
	</g>
	<g>
		<circle fill="#FFFFFF" cx="36.384" cy="40.151" r="1.049"/>
	</g>
	<g>
		<circle fill="#FFFFFF" cx="36.384" cy="36.618" r="1.049"/>
	</g>
	<g>
		<circle fill="#FFFFFF" cx="39.907" cy="11.879" r="1.049"/>
	</g>
	<g>
		<circle fill="#FFFFFF" cx="39.907" cy="8.345" r="1.049"/>
	</g>
	<g>
		<circle fill="#FFFFFF" cx="39.907" cy="4.81" r="1.049"/>
	</g>
	<g>
		<circle fill="#FFFFFF" cx="39.907" cy="22.481" r="1.049"/>
	</g>
	<g>
		<circle fill="#FFFFFF" cx="39.907" cy="18.947" r="1.049"/>
	</g>
	<g>
		<circle fill="#FFFFFF" cx="39.907" cy="15.413" r="1.049"/>
	</g>
	<g>
		<circle fill="#FFFFFF" cx="39.907" cy="33.084" r="1.049"/>
	</g>
	<g>
		<circle fill="#FFFFFF" cx="39.907" cy="29.55" r="1.049"/>
	</g>
	<g>
		<circle fill="#FFFFFF" cx="39.907" cy="26.016" r="1.049"/>
	</g>
	<g>
		<circle fill="#FFFFFF" cx="39.907" cy="43.686" r="1.049"/>
	</g>
	<g>
		<circle fill="#FFFFFF" cx="39.907" cy="40.151" r="1.049"/>
	</g>
	<g>
		<circle fill="#FFFFFF" cx="39.907" cy="36.618" r="1.049"/>
	</g>
	<g>
		<circle fill="#FFFFFF" cx="43.43" cy="11.879" r="1.05"/>
	</g>
	<g>
		<circle fill="#FFFFFF" cx="43.43" cy="8.345" r="1.05"/>
	</g>
	<g>
		<circle fill="#FFFFFF" cx="43.43" cy="4.81" r="1.05"/>
	</g>
	<g>
		<circle fill="#FFFFFF" cx="43.43" cy="22.481" r="1.05"/>
	</g>
	<g>
		<circle fill="#FFFFFF" cx="43.43" cy="18.947" r="1.05"/>
	</g>
	<g>
		<circle fill="#FFFFFF" cx="43.43" cy="15.413" r="1.05"/>
	</g>
	<g>
		<circle fill="#FFFFFF" cx="43.43" cy="33.084" r="1.05"/>
	</g>
	<g>
		<circle fill="#FFFFFF" cx="43.43" cy="29.55" r="1.05"/>
	</g>
	<g>
		<circle fill="#FFFFFF" cx="43.43" cy="26.016" r="1.05"/>
	</g>
	<g>
		<circle fill="#FFFFFF" cx="43.43" cy="43.686" r="1.05"/>
	</g>
	<g>
		<circle fill="#FFFFFF" cx="43.43" cy="40.151" r="1.05"/>
	</g>
	<g>
		<circle fill="#FFFFFF" cx="43.43" cy="36.618" r="1.05"/>
	</g>
	<g>
		<path fill="#FFFFFF" d="M47.231,48.081H0.784C0.351,48.081,0,47.729,0,47.297V6.354c0-0.217,0.088-0.423,0.246-0.572l5.842-5.503
			c0.145-0.138,0.337-0.214,0.538-0.214h40.605c0.433,0,0.783,0.352,0.783,0.784v46.447C48.014,47.729,47.664,48.081,47.231,48.081z
			 M1.568,46.513h44.879V1.634H6.937l-5.369,5.06V46.513z"/>
	</g>
	<g>
		<path fill="#FFFFFF" d="M33.448,34.411H14.689c-0.433,0-0.784-0.352-0.784-0.783V14.87c0-0.433,0.351-0.785,0.784-0.785h18.758
			c0.433,0,0.783,0.353,0.783,0.785v18.758C34.231,34.06,33.88,34.411,33.448,34.411z M15.474,32.844h17.19v-17.19h-17.19V32.844z"
			/>
	</g>
</g>
</svg>
