<?xml version="1.0" encoding="utf-8"?>
<!-- Generator: Adobe Illustrator 16.0.0, SVG Export Plug-In . SVG Version: 6.00 Build 0)  -->
<!DOCTYPE svg PUBLIC "-//W3C//DTD SVG 1.1//EN" "http://www.w3.org/Graphics/SVG/1.1/DTD/svg11.dtd">
<svg version="1.1" id="Layer_1" xmlns="http://www.w3.org/2000/svg" xmlns:xlink="http://www.w3.org/1999/xlink" x="0px" y="0px"
	 width="46.782px" height="47.042px" viewBox="0 0 46.782 47.042" enable-background="new 0 0 46.782 47.042" xml:space="preserve">
<g>
	<g>
		<path fill="#FFFFFF" d="M37.143,10.978c-0.029,0-0.057-0.002-0.086-0.005l-7.571-0.795c-0.29-0.031-0.542-0.213-0.661-0.48
			c-0.118-0.267-0.086-0.576,0.086-0.812l4.475-6.158c0.171-0.236,0.455-0.361,0.746-0.333c0.29,0.031,0.541,0.214,0.66,0.48
			l3.058,6.866c0.074,0.122,0.116,0.267,0.116,0.42c0,0.451-0.365,0.817-0.816,0.817C37.147,10.978,37.145,10.978,37.143,10.978z
			 M31.064,8.702l4.757,0.499l-1.945-4.369L31.064,8.702z"/>
	</g>
	<g>
		<path fill="#FFFFFF" d="M42.346,21.604c-0.199,0-0.395-0.072-0.547-0.209l-5.658-5.094c-0.217-0.194-0.312-0.491-0.252-0.776
			c0.061-0.286,0.269-0.518,0.546-0.607l7.24-2.353c0.277-0.09,0.582-0.025,0.799,0.17s0.313,0.491,0.253,0.777l-1.582,7.446
			c-0.061,0.285-0.27,0.518-0.547,0.607C42.515,21.593,42.43,21.604,42.346,21.604z M38.286,16.034l3.555,3.202l0.994-4.679
			L38.286,16.034z"/>
	</g>
	<g>
		<path fill="#FFFFFF" d="M40.308,33.261c-0.085,0-0.169-0.014-0.253-0.039c-0.277-0.092-0.485-0.322-0.546-0.609l-1.583-7.445
			c-0.061-0.285,0.035-0.582,0.252-0.777s0.521-0.26,0.799-0.168l7.24,2.352c0.277,0.09,0.486,0.322,0.547,0.607
			s-0.036,0.58-0.253,0.775l-5.656,5.094C40.703,33.188,40.507,33.261,40.308,33.261z M39.819,26.212l0.994,4.678l3.554-3.199
			L39.819,26.212z"/>
	</g>
	<g>
		<path fill="#FFFFFF" d="M31.809,41.493c-0.26,0-0.506-0.125-0.66-0.336c-0.172-0.236-0.205-0.547-0.086-0.812l3.096-6.955
			c0.119-0.268,0.371-0.451,0.66-0.48c0.29-0.029,0.575,0.096,0.747,0.332l4.475,6.158c0.171,0.236,0.204,0.547,0.085,0.812
			c-0.118,0.268-0.37,0.449-0.66,0.48l-7.57,0.795C31.866,41.491,31.837,41.493,31.809,41.493z M35.076,35.347l-1.944,4.369
			l4.756-0.5L35.076,35.347z"/>
	</g>
	<g>
		<path fill="#FFFFFF" d="M26.687,46.962c-0.141,0-0.282-0.035-0.408-0.107l-6.592-3.807c-0.253-0.146-0.409-0.416-0.409-0.707
			c0-0.293,0.156-0.562,0.408-0.707l6.593-3.809c0.253-0.146,0.564-0.146,0.817,0s0.409,0.416,0.409,0.707v7.613
			c0,0.293-0.156,0.562-0.409,0.709C26.969,46.927,26.828,46.962,26.687,46.962z M21.728,42.341l4.143,2.391v-4.783L21.728,42.341z"
			/>
	</g>
	<g>
		<path fill="#FFFFFF" d="M12.736,44.571c-0.028,0-0.057,0-0.086-0.004c-0.29-0.031-0.542-0.213-0.661-0.48l-3.096-6.953
			c-0.119-0.268-0.086-0.576,0.085-0.812c0.172-0.236,0.457-0.361,0.747-0.332l7.571,0.795c0.291,0.029,0.542,0.213,0.661,0.48
			c0.119,0.266,0.086,0.576-0.085,0.812l-4.475,6.158C13.242,44.448,12.995,44.571,12.736,44.571z M10.961,37.761l1.945,4.369
			l2.812-3.869L10.961,37.761z"/>
	</g>
	<g>
		<path fill="#FFFFFF" d="M2.854,34.437c-0.199,0-0.395-0.072-0.547-0.211c-0.217-0.193-0.313-0.49-0.252-0.775l1.582-7.447
			c0.061-0.285,0.269-0.516,0.547-0.605c0.277-0.09,0.582-0.025,0.799,0.17l5.658,5.094c0.217,0.195,0.313,0.49,0.252,0.775
			c-0.061,0.287-0.269,0.518-0.546,0.607l-7.24,2.354C3.024,34.423,2.938,34.437,2.854,34.437z M4.941,27.728l-0.994,4.678
			l4.549-1.477L4.941,27.728z"/>
	</g>
	<g>
		<path fill="#FFFFFF" d="M8.056,22.782c-0.084,0-0.169-0.014-0.252-0.041l-7.24-2.352c-0.277-0.092-0.486-0.322-0.546-0.607
			S0.053,19.2,0.27,19.005l5.657-5.093c0.217-0.195,0.521-0.261,0.799-0.17c0.277,0.09,0.486,0.321,0.546,0.606l1.562,7.346
			C8.864,21.78,8.88,21.87,8.88,21.966c0,0.451-0.366,0.816-0.817,0.816C8.061,22.782,8.059,22.782,8.056,22.782z M2.415,19.272
			l4.549,1.479l-0.995-4.679L2.415,19.272z"/>
	</g>
	<g>
		<path fill="#FFFFFF" d="M11.876,14.058c-0.26,0-0.506-0.124-0.661-0.337L6.741,7.563C6.57,7.327,6.537,7.016,6.656,6.75
			C6.774,6.484,7.026,6.3,7.317,6.27l7.57-0.796c0.289-0.029,0.574,0.097,0.746,0.333c0.171,0.235,0.204,0.545,0.085,0.812
			l-3.096,6.955c-0.118,0.267-0.371,0.449-0.661,0.479C11.933,14.057,11.905,14.058,11.876,14.058z M8.895,7.747l2.811,3.87
			l1.945-4.37L8.895,7.747z"/>
	</g>
	<g>
		<path fill="#FFFFFF" d="M20.094,9.246c-0.141,0-0.282-0.036-0.408-0.109c-0.253-0.146-0.408-0.415-0.408-0.707V0.816
			c0-0.291,0.155-0.562,0.408-0.707s0.564-0.146,0.817,0l6.593,3.807c0.252,0.146,0.409,0.415,0.409,0.707s-0.156,0.562-0.409,0.707
			l-6.593,3.807C20.376,9.209,20.235,9.246,20.094,9.246z M20.911,2.231v4.783l4.143-2.392L20.911,2.231z"/>
	</g>
</g>
</svg>
