<?xml version="1.0" encoding="utf-8"?>
<!-- Generator: Adobe Illustrator 16.0.0, SVG Export Plug-In . SVG Version: 6.00 Build 0)  -->
<!DOCTYPE svg PUBLIC "-//W3C//DTD SVG 1.1//EN" "http://www.w3.org/Graphics/SVG/1.1/DTD/svg11.dtd">
<svg version="1.1" id="Layer_1" xmlns="http://www.w3.org/2000/svg" xmlns:xlink="http://www.w3.org/1999/xlink" x="0px" y="0px"
	 width="44.174px" height="45.092px" viewBox="0 0 44.174 45.092" enable-background="new 0 0 44.174 45.092" xml:space="preserve">
<g>
	<g>
		<path fill="#FFFFFF" d="M8.066,6.721c-0.206,0-0.41-0.086-0.555-0.252C7.244,6.162,7.276,5.696,7.582,5.43
			C11.599,1.929,16.75,0,22.086,0c3.943,0,7.815,1.052,11.193,3.043c0.521,0.308,1.039,0.642,1.537,0.994
			c0.332,0.233,0.412,0.692,0.178,1.025c-0.234,0.332-0.693,0.41-1.025,0.177c-0.466-0.329-0.949-0.642-1.436-0.928
			c-3.152-1.858-6.766-2.84-10.447-2.84c-4.98,0-9.789,1.799-13.538,5.067C8.41,6.661,8.237,6.721,8.066,6.721z"/>
	</g>
	<g>
		<path fill="#FFFFFF" d="M42.428,29.331c-0.074,0-0.149-0.01-0.225-0.035c-0.387-0.123-0.6-0.537-0.477-0.924
			c0.646-2.023,0.976-4.139,0.976-6.283c0-5.442-2.102-10.576-5.917-14.454c-0.284-0.29-0.28-0.756,0.01-1.041
			c0.289-0.285,0.756-0.28,1.04,0.009c4.087,4.155,6.339,9.655,6.339,15.486c0,2.297-0.352,4.562-1.045,6.73
			C43.029,29.133,42.74,29.331,42.428,29.331z"/>
	</g>
	<g>
		<path fill="#FFFFFF" d="M5.217,22.555c-0.407,0-0.736-0.328-0.736-0.734c0-6.583,3.115-12.378,8.333-15.505
			c0.349-0.209,0.8-0.095,1.009,0.253c0.209,0.349,0.096,0.801-0.253,1.01c-4.77,2.857-7.618,8.183-7.618,14.243
			C5.953,22.227,5.624,22.555,5.217,22.555z"/>
	</g>
	<g>
		<path fill="#FFFFFF" d="M28.727,6.879c-0.096,0-0.193-0.019-0.287-0.057c-0.723-0.307-1.473-0.562-2.229-0.758
			c-1.34-0.348-2.728-0.525-4.124-0.525c-1.915,0-3.791,0.328-5.575,0.977c-0.383,0.139-0.804-0.059-0.943-0.44
			s0.059-0.804,0.441-0.942C17.956,4.427,20,4.068,22.087,4.068c1.521,0,3.033,0.192,4.494,0.572
			c0.826,0.215,1.645,0.492,2.432,0.825c0.375,0.158,0.551,0.59,0.393,0.965C29.286,6.711,29.013,6.879,28.727,6.879z"/>
	</g>
	<g>
		<path fill="#FFFFFF" d="M10.57,42.499c-0.212,0-0.423-0.092-0.568-0.268c-0.258-0.314-0.213-0.779,0.101-1.037
			c2.079-1.711,3.016-4.373,3.437-6.303c0.086-0.396,0.479-0.648,0.875-0.562c0.397,0.086,0.649,0.479,0.563,0.875
			c-0.674,3.096-2.037,5.559-3.94,7.127C10.9,42.442,10.735,42.499,10.57,42.499z"/>
	</g>
	<g>
		<path fill="#FFFFFF" d="M14.385,32.387c-0.006,0-0.012,0-0.017,0c-0.407-0.01-0.729-0.348-0.719-0.754
			c0.025-1.09-0.044-2.127-0.188-2.846c-0.514-2.055-1.003-4.324-0.864-7.49c0.199-4.537,4.2-9.591,9.624-9.591
			c4.99,0,9.109,3.74,9.582,8.701c0.038,0.406-0.259,0.764-0.663,0.803c-0.405,0.039-0.765-0.258-0.802-0.662
			c-0.4-4.202-3.89-7.371-8.117-7.371c-4.462,0-7.985,4.322-8.154,8.185c-0.13,2.979,0.316,5.051,0.826,7.084
			c0.002,0.012,0.005,0.021,0.007,0.033c0.167,0.822,0.248,1.984,0.221,3.189C15.111,32.067,14.784,32.387,14.385,32.387z"/>
	</g>
	<g>
		<path fill="#FFFFFF" d="M23.176,45.092c-0.103,0-0.208-0.023-0.308-0.068c-0.369-0.172-0.53-0.607-0.359-0.977
			c1.342-2.904,3.087-7.43,3.748-10.508c0.086-0.396,0.477-0.65,0.874-0.564c0.397,0.084,0.649,0.475,0.564,0.873
			c-0.685,3.188-2.476,7.842-3.85,10.816C23.72,44.934,23.455,45.092,23.176,45.092z"/>
	</g>
	<g>
		<path fill="#FFFFFF" d="M26.722,30.936c-0.025,0-0.052-0.002-0.078-0.006c-0.403-0.041-0.697-0.402-0.654-0.807
			c0.517-4.914,0.071-8.311,0.066-8.344c-0.004-0.033-0.007-0.066-0.007-0.1c0-2.139-1.74-3.881-3.881-3.881
			c-2.139,0-3.88,1.742-3.88,3.881c0,0.406-0.329,0.736-0.735,0.736s-0.736-0.33-0.736-0.736c0-2.951,2.401-5.352,5.352-5.352
			c2.935,0,5.326,2.375,5.353,5.303c0.058,0.461,0.439,3.824-0.067,8.645C27.413,30.655,27.094,30.936,26.722,30.936z"/>
	</g>
	<g>
		<path fill="#FFFFFF" d="M32.279,42.499c-0.386,0-0.71-0.303-0.733-0.693c-0.184-3.154,2.085-6.947,4.226-10.254
			c1.816-2.807,2.794-6.088,2.908-9.754c0.001-0.016,0.001-0.029,0.003-0.045c0.414-4.471-2.524-10.21-6.836-13.351
			c-0.328-0.239-0.4-0.698-0.161-1.027s0.699-0.4,1.028-0.161c4.689,3.416,7.883,9.709,7.436,14.653
			c-0.125,3.928-1.182,7.455-3.143,10.484c-1.557,2.406-4.163,6.432-3.992,9.369c0.023,0.406-0.285,0.754-0.691,0.777
			C32.308,42.497,32.293,42.499,32.279,42.499z"/>
	</g>
	<g>
		<path fill="#FFFFFF" d="M19.308,45.092c-0.102,0-0.206-0.021-0.304-0.066c-0.37-0.168-0.533-0.605-0.365-0.975
			c2.348-5.154,2.945-9.188,3.184-14.41c0.019-0.406,0.358-0.717,0.769-0.701c0.406,0.02,0.72,0.363,0.702,0.77
			c-0.247,5.402-0.869,9.58-3.314,14.951C19.854,44.932,19.587,45.092,19.308,45.092z"/>
	</g>
	<g>
		<path fill="#FFFFFF" d="M22.406,27.038c-0.019,0-0.038,0-0.057-0.002c-0.405-0.031-0.708-0.385-0.678-0.791
			c0.218-2.863-0.35-5.359-0.355-5.385c-0.092-0.395,0.155-0.791,0.55-0.883c0.395-0.092,0.791,0.154,0.883,0.551
			c0.026,0.109,0.625,2.73,0.389,5.83C23.11,26.743,22.787,27.038,22.406,27.038z"/>
	</g>
	<g>
		<path fill="#FFFFFF" d="M29.372,31.749c-0.098,0-0.197-0.02-0.293-0.061c-0.37-0.162-0.541-0.59-0.381-0.961
			c0.012-0.027,0.033-0.07,0.062-0.133c1.066-2.199,1.468-4.77,1.617-6.537c0.035-0.404,0.395-0.705,0.795-0.672
			c0.405,0.033,0.706,0.391,0.672,0.795c-0.16,1.895-0.596,4.654-1.76,7.057l-0.037,0.074
			C29.926,31.586,29.655,31.749,29.372,31.749z"/>
	</g>
	<g>
		<path fill="#FFFFFF" d="M14.51,44.172c-0.17,0-0.34-0.059-0.479-0.178c-0.309-0.264-0.344-0.729-0.079-1.037
			c0.422-0.492,2.828-3.994,3.331-7.686c0.453-3.328,0-10.025-0.005-10.094c-0.028-0.404,0.279-0.756,0.684-0.785
			c0.405-0.027,0.756,0.279,0.784,0.684c0.019,0.281,0.468,6.916-0.005,10.395c-0.558,4.094-3.179,7.871-3.672,8.445
			C14.923,44.084,14.717,44.172,14.51,44.172z"/>
	</g>
	<g>
		<path fill="#FFFFFF" d="M28.37,44.713c-0.371,0-0.69-0.279-0.73-0.658c-0.363-3.396,1.395-7.168,3.256-11.16
			c1.809-3.883,3.681-7.898,3.505-11.555c-0.001-0.012-0.001-0.023-0.001-0.033C34.377,15.686,29.063,9.15,22.245,9.15
			c-2.755,0-5.55,0.966-7.869,2.72c-0.324,0.246-0.786,0.182-1.031-0.143s-0.181-0.785,0.143-1.03
			c2.573-1.947,5.684-3.02,8.757-3.02c7.762,0,13.59,7.181,13.626,13.608c0.187,4.014-1.76,8.191-3.642,12.23
			c-1.772,3.803-3.446,7.395-3.127,10.383c0.043,0.404-0.25,0.768-0.654,0.811C28.422,44.711,28.395,44.713,28.37,44.713z"/>
	</g>
	<g>
		<path fill="#FFFFFF" d="M7.623,39.944c-0.276,0-0.54-0.156-0.666-0.422c-0.174-0.367-0.017-0.807,0.35-0.98
			c3.463-1.639,3.192-4.127,2.185-10.098c-0.242-1.436-0.517-3.062-0.746-4.854c-0.581-4.547-0.003-7.489,1.996-10.154
			c0.244-0.324,0.705-0.391,1.03-0.146c0.325,0.244,0.391,0.704,0.147,1.03c-1.276,1.7-2.366,3.977-1.714,9.084
			c0.226,1.762,0.498,3.373,0.738,4.793c0.964,5.717,1.603,9.494-3.006,11.674C7.834,39.92,7.728,39.944,7.623,39.944z"/>
	</g>
	<g>
		<path fill="#FFFFFF" d="M35.862,39.602c-0.194,0-0.387-0.076-0.532-0.227c-0.28-0.293-0.271-0.76,0.022-1.039
			c1.102-1.059,3.799-3.852,5.025-6.957c0.15-0.377,0.578-0.562,0.955-0.412c0.378,0.148,0.563,0.576,0.414,0.953
			c-1.335,3.377-4.205,6.354-5.377,7.477C36.227,39.534,36.044,39.602,35.862,39.602z"/>
	</g>
	<g>
		<path fill="#FFFFFF" d="M5.975,36.284c-0.168,0-0.32-0.02-0.456-0.049c-1.243-0.271-2.34-1.605-3.354-4.078
			c-0.975-2.381-1.724-5.537-2.034-7.611c-0.003-0.023-0.006-0.045-0.007-0.068L0,22.127c0-0.014-0.001-0.027-0.001-0.039
			c0-1.803,0.218-3.594,0.646-5.326c0.693-2.8,1.914-5.403,3.627-7.737c0.241-0.327,0.701-0.398,1.028-0.158
			C5.629,9.108,5.7,9.568,5.459,9.896c-1.6,2.179-2.739,4.607-3.386,7.219c-0.398,1.611-0.602,3.275-0.603,4.953l0.122,2.293
			c0.3,1.986,1.012,4.982,1.935,7.236c1.095,2.672,1.978,3.127,2.306,3.199c0.104,0.021,0.424,0.094,0.946-0.395
			c0.572-0.535,0.275-1.383-0.539-3.195c-0.134-0.299-0.272-0.607-0.408-0.926c-0.595-1.398-1.063-3.156-1.433-5.377
			c-0.066-0.4,0.205-0.779,0.605-0.846c0.4-0.066,0.779,0.205,0.846,0.605c0.35,2.104,0.786,3.752,1.335,5.039
			c0.132,0.311,0.266,0.611,0.396,0.9c0.824,1.834,1.601,3.566,0.201,4.875C7.111,36.106,6.477,36.284,5.975,36.284z"/>
	</g>
</g>
</svg>
