<?xml version="1.0" encoding="utf-8"?>
<!-- Generator: Adobe Illustrator 16.0.0, SVG Export Plug-In . SVG Version: 6.00 Build 0)  -->
<!DOCTYPE svg PUBLIC "-//W3C//DTD SVG 1.1//EN" "http://www.w3.org/Graphics/SVG/1.1/DTD/svg11.dtd">
<svg version="1.1" id="Layer_1" xmlns="http://www.w3.org/2000/svg" xmlns:xlink="http://www.w3.org/1999/xlink" x="0px" y="0px"
	 width="60.217px" height="31.996px" viewBox="0 0 60.217 31.996" enable-background="new 0 0 60.217 31.996" xml:space="preserve">
<g>
	<g>
		<g>
			<path fill="#FFFFFF" d="M59.346,31.996H32.834c-0.473,0-0.86-0.378-0.871-0.852c-0.001-0.025-0.103-2.885-1.855-2.885
				c-0.394,0-0.691,0.116-0.938,0.368c-0.602,0.614-0.744,1.87-0.752,2.384c0.005,0.037,0.008,0.074,0.008,0.113
				c0,0.48-0.39,0.871-0.872,0.871c-0.001-0.001-0.003-0.001-0.006,0H0.871C0.391,31.996,0,31.605,0,31.125V14.247
				c0-0.48,0.391-0.871,0.871-0.871h1.046V9.599H0.871C0.391,9.599,0,9.207,0,8.727V0.871C0,0.391,0.391,0,0.871,0h58.475
				c0.48,0,0.871,0.391,0.871,0.871v7.855c0,0.48-0.391,0.872-0.871,0.872h-1.047v3.777h1.047c0.48,0,0.871,0.391,0.871,0.871
				v16.878C60.217,31.605,59.826,31.996,59.346,31.996z M33.624,30.253h24.849V15.119h-1.044c-0.481,0-0.872-0.39-0.872-0.872V8.727
				c0-0.481,0.391-0.871,0.872-0.871h1.044V1.743H1.743v6.112h1.045c0.48,0,0.871,0.39,0.871,0.871v5.521
				c0,0.482-0.391,0.872-0.871,0.872H1.743v15.134h24.986c0.101-0.819,0.388-2.019,1.196-2.845c0.571-0.584,1.326-0.892,2.183-0.892
				C32.428,26.517,33.363,28.635,33.624,30.253z"/>
		</g>
	</g>
	<g>
		<path fill="#FFFFFF" d="M15.062,19.468H6.916c-0.482,0-0.872-0.39-0.872-0.871V5.469c0-0.481,0.389-0.871,0.872-0.871h8.146
			c0.482,0,0.872,0.39,0.872,0.871v13.128C15.933,19.078,15.543,19.468,15.062,19.468z M7.787,17.726h6.403V6.34H7.787V17.726z"/>
	</g>
	<g>
		<path fill="#FFFFFF" d="M27.782,19.468h-8.146c-0.482,0-0.871-0.39-0.871-0.871V5.469c0-0.481,0.389-0.871,0.871-0.871h8.146
			c0.482,0,0.872,0.39,0.872,0.871v13.128C28.654,19.078,28.264,19.468,27.782,19.468z M20.508,17.726h6.403V6.34h-6.403V17.726z"/>
	</g>
	<g>
		<path fill="#FFFFFF" d="M41.484,19.468h-8.146c-0.481,0-0.872-0.39-0.872-0.871V5.469c0-0.481,0.391-0.871,0.872-0.871h8.146
			c0.48,0,0.871,0.39,0.871,0.871v13.128C42.355,19.078,41.965,19.468,41.484,19.468z M34.209,17.726h6.404V6.34h-6.404V17.726z"/>
	</g>
	<g>
		<path fill="#FFFFFF" d="M54.205,19.468h-8.146c-0.48,0-0.871-0.39-0.871-0.871V5.469c0-0.481,0.391-0.871,0.871-0.871h8.146
			c0.48,0,0.871,0.39,0.871,0.871v13.128C55.076,19.078,54.686,19.468,54.205,19.468z M46.93,17.726h6.404V6.34H46.93V17.726z"/>
	</g>
	<g>
		<path fill="#FFFFFF" d="M3.912,31.996H0.871C0.391,31.996,0,31.605,0,31.125v-4.913c0-0.48,0.391-0.871,0.871-0.871h3.041
			c0.48,0,0.87,0.391,0.87,0.871v4.913C4.782,31.605,4.393,31.996,3.912,31.996z M1.743,30.253h1.297v-3.169H1.743V30.253z"/>
	</g>
	<g>
		<path fill="#FFFFFF" d="M6.953,31.996H3.912c-0.482,0-0.872-0.391-0.872-0.871v-4.913c0-0.48,0.39-0.871,0.872-0.871h3.041
			c0.481,0,0.871,0.391,0.871,0.871v4.913C7.824,31.605,7.434,31.996,6.953,31.996z M4.782,30.253h1.299v-3.169H4.782V30.253z"/>
	</g>
	<g>
		<path fill="#FFFFFF" d="M9.994,31.996H6.953c-0.481,0-0.872-0.391-0.872-0.871v-4.913c0-0.48,0.39-0.871,0.872-0.871h3.041
			c0.481,0,0.871,0.391,0.871,0.871v4.913C10.865,31.605,10.475,31.996,9.994,31.996z M7.824,30.253h1.298v-3.169H7.824V30.253z"/>
	</g>
	<g>
		<path fill="#FFFFFF" d="M13.034,31.996H9.994c-0.482,0-0.872-0.391-0.872-0.871v-4.913c0-0.48,0.39-0.871,0.872-0.871h3.041
			c0.48,0,0.871,0.391,0.871,0.871v4.913C13.905,31.605,13.515,31.996,13.034,31.996z M10.865,30.253h1.297v-3.169h-1.297V30.253z"
			/>
	</g>
	<g>
		<path fill="#FFFFFF" d="M16.074,31.996h-3.04c-0.481,0-0.873-0.391-0.873-0.871v-4.913c0-0.48,0.392-0.871,0.873-0.871h3.04
			c0.481,0,0.871,0.391,0.871,0.871v4.913C16.945,31.605,16.556,31.996,16.074,31.996z M13.905,30.253h1.298v-3.169h-1.298V30.253z"
			/>
	</g>
	<g>
		<path fill="#FFFFFF" d="M19.115,31.996h-3.041c-0.481,0-0.872-0.391-0.872-0.871v-4.913c0-0.48,0.391-0.871,0.872-0.871h3.041
			c0.48,0,0.871,0.391,0.871,0.871v4.913C19.986,31.605,19.596,31.996,19.115,31.996z M16.945,30.253h1.298v-3.169h-1.298V30.253z"
			/>
	</g>
	<g>
		<path fill="#FFFFFF" d="M22.155,31.996h-3.04c-0.481,0-0.872-0.391-0.872-0.871v-4.913c0-0.48,0.39-0.871,0.872-0.871h3.04
			c0.481,0,0.872,0.391,0.872,0.871v4.913C23.027,31.605,22.636,31.996,22.155,31.996z M19.986,30.253h1.298v-3.169h-1.298V30.253z"
			/>
	</g>
	<g>
		<path fill="#FFFFFF" d="M25.196,31.996h-3.041c-0.48,0-0.871-0.391-0.871-0.871v-4.913c0-0.48,0.39-0.871,0.871-0.871h3.041
			c0.482,0,0.871,0.391,0.871,0.871v4.913C26.067,31.605,25.678,31.996,25.196,31.996z M23.027,30.253h1.298v-3.169h-1.298V30.253z"
			/>
	</g>
	<g>
		<path fill="#FFFFFF" d="M38.621,31.996h-2.959c-0.482,0-0.871-0.391-0.871-0.871v-4.913c0-0.48,0.389-0.871,0.871-0.871h2.959
			c0.482,0,0.872,0.391,0.872,0.871v4.913C39.493,31.605,39.104,31.996,38.621,31.996z M36.533,30.253h1.217v-3.169h-1.217V30.253z"
			/>
	</g>
	<g>
		<path fill="#FFFFFF" d="M41.582,31.996h-2.961c-0.48,0-0.871-0.391-0.871-0.871v-4.913c0-0.48,0.391-0.871,0.871-0.871h2.961
			c0.481,0,0.872,0.391,0.872,0.871v4.913C42.454,31.605,42.063,31.996,41.582,31.996z M39.493,30.253h1.219v-3.169h-1.219V30.253z"
			/>
	</g>
	<g>
		<path fill="#FFFFFF" d="M44.543,31.996h-2.961c-0.48,0-0.87-0.391-0.87-0.871v-4.913c0-0.48,0.39-0.871,0.87-0.871h2.961
			c0.48,0,0.871,0.391,0.871,0.871v4.913C45.414,31.605,45.023,31.996,44.543,31.996z M42.454,30.253h1.218v-3.169h-1.218V30.253z"
			/>
	</g>
	<g>
		<path fill="#FFFFFF" d="M47.504,31.996h-2.961c-0.48,0-0.871-0.391-0.871-0.871v-4.913c0-0.48,0.391-0.871,0.871-0.871h2.961
			c0.48,0,0.871,0.391,0.871,0.871v4.913C48.375,31.605,47.984,31.996,47.504,31.996z M45.414,30.253h1.218v-3.169h-1.218V30.253z"
			/>
	</g>
	<g>
		<path fill="#FFFFFF" d="M50.463,31.996h-2.959c-0.482,0-0.872-0.391-0.872-0.871v-4.913c0-0.48,0.39-0.871,0.872-0.871h2.959
			c0.482,0,0.872,0.391,0.872,0.871v4.913C51.335,31.605,50.945,31.996,50.463,31.996z M48.375,30.253h1.217v-3.169h-1.217V30.253z"
			/>
	</g>
	<g>
		<path fill="#FFFFFF" d="M53.424,31.996h-2.961c-0.48,0-0.871-0.391-0.871-0.871v-4.913c0-0.48,0.391-0.871,0.871-0.871h2.961
			c0.481,0,0.871,0.391,0.871,0.871v4.913C54.295,31.605,53.905,31.996,53.424,31.996z M51.335,30.253h1.218v-3.169h-1.218V30.253z"
			/>
	</g>
	<g>
		<path fill="#FFFFFF" d="M56.385,31.996h-2.961c-0.48,0-0.871-0.391-0.871-0.871v-4.913c0-0.48,0.391-0.871,0.871-0.871h2.961
			c0.48,0,0.871,0.391,0.871,0.871v4.913C57.256,31.605,56.865,31.996,56.385,31.996z M54.295,30.253h1.219v-3.169h-1.219V30.253z"
			/>
	</g>
	<g>
		<path fill="#FFFFFF" d="M59.346,31.996h-2.961c-0.481,0-0.871-0.391-0.871-0.871v-4.913c0-0.48,0.39-0.871,0.871-0.871h2.961
			c0.48,0,0.871,0.391,0.871,0.871v4.913C60.217,31.605,59.826,31.996,59.346,31.996z M57.256,30.253h1.217v-3.169h-1.217V30.253z"
			/>
	</g>
</g>
</svg>
